<?xml version="1.0" encoding="utf-8"?>
<svg width="130px" height="28px" viewBox="0 0 130 28" version="1.1" xmlns:xlink="http://www.w3.org/1999/xlink" xmlns="http://www.w3.org/2000/svg">
  <g id="ebuka" fill="#39ff14">
    <path d="M93.5303 11.7463Q95.5688 13.7737 97.6929 15.8988L97.7051 15.911Q99.1333 17.3398 99.1333 19.3671Q99.1333 21.3947 97.7051 22.8235Q96.2891 24.2524 94.2749 24.2524Q92.2729 24.2524 90.8569 22.8242Q88.3301 20.3218 87.3291 19.3208Q87.3291 21.396 85.8887 22.8364C84.9447 23.7804 83.8053 24.2524 82.4707 24.2524Q80.4688 24.2524 79.0405 22.8235Q77.6245 21.3947 77.6245 19.3671L77.6245 4.12534Q77.6245 2.09801 79.0405 0.66922Q80.4688 -0.759762 82.4707 -0.759766Q84.4604 -0.759766 85.8765 0.644043Q87.3291 2.08447 87.3291 4.18408L90.8569 0.668457Q92.2729 -0.759762 94.2749 -0.759766Q96.2891 -0.759766 97.7051 0.66922Q99.1333 2.09801 99.1333 4.12534Q99.1333 6.15285 97.7051 7.58164L97.6929 7.59385L97.29 7.99687Q96.8018 8.48553 96.3623 8.92518Q94.8486 10.4274 93.5303 11.7463ZM126.392 17.3188Q126.099 16.623 118.848 2.03564L118.835 1.99902Q118.201 0.729494 116.992 -0.0151367Q115.796 -0.759766 114.355 -0.759766Q112.927 -0.759762 111.731 -0.0151367Q110.535 0.729494 109.9 1.99902L109.888 2.03564Q102.625 16.6475 102.332 17.3188Q101.575 19.1377 102.258 20.9932Q102.954 22.8364 104.712 23.7153Q106.409 24.5698 108.24 24.0693Q110.071 23.5811 111.108 21.9819Q112.256 20.2241 114.368 20.2241Q116.467 20.2241 117.627 21.9819Q119.104 24.2402 121.802 24.2402Q124.475 24.2402 125.952 22.0063Q127.429 19.7725 126.392 17.3188ZM18.3594 14.4258Q20.3735 14.4258 21.8018 15.8662Q23.23 17.2944 23.23 19.3208Q23.23 21.3838 21.7651 22.8364Q20.3247 24.2524 18.3594 24.2524L6.09131 24.2524Q4.08935 24.2524 2.66113 22.8364Q1.2207 21.4082 1.2207 19.4185L1.2207 3.95215Q1.28174 1.91358 2.771 0.546387Q4.19922 -0.747559 6.09131 -0.747559L18.3594 -0.747559Q20.3247 -0.747559 21.7651 0.668457Q23.23 2.12109 23.23 4.18408Q23.23 6.21045 21.8018 7.63867Q20.3735 9.0791 18.3594 9.0791L17.6147 9.0791Q18.4204 10.2876 18.4204 11.7402Q18.4204 13.2173 17.6025 14.4258L18.3594 14.4258ZM44.9707 5.2583Q44.9707 7.80957 43.1274 9.57959Q45.2637 10.4585 46.582 12.4604Q47.9004 14.4624 47.9004 16.7817Q47.9004 19.8701 45.7275 22.0674Q43.5425 24.2524 40.4785 24.2524L30.6396 24.2524Q28.5889 24.2524 27.124 22.7876Q25.6714 21.3228 25.6714 19.2598L25.6714 4.25732Q25.6714 2.18213 27.124 0.717285Q28.5889 -0.747559 30.6396 -0.747559L37.2192 -0.747559Q39.4775 -0.747559 40.1001 -0.625488Q42.1997 -0.234863 43.5791 1.41309Q44.9707 3.08545 44.9707 5.2583ZM70.3125 -0.747559Q68.2739 -0.747559 66.8335 0.729492Q65.4175 2.18213 65.4175 4.14746L65.4175 11.7524Q65.4175 12.8633 64.6362 13.6445Q63.855 14.4258 62.7563 14.4258Q61.6577 14.4258 60.8887 13.6445Q60.1074 12.8633 60.1074 11.7524L60.1074 4.14746Q60.1074 2.18213 58.6914 0.741699Q57.251 -0.747559 55.2124 -0.747559Q53.1982 -0.747559 51.77 0.692871Q50.3418 2.12109 50.3418 4.14746L50.3418 11.7524Q50.3418 16.916 53.9795 20.5903Q57.6294 24.2524 62.7563 24.2524Q67.8955 24.2524 71.5332 20.5903Q75.1831 16.916 75.1831 11.7524L75.1831 4.14746Q75.1831 2.12109 73.7549 0.692871Q72.3267 -0.747559 70.3125 -0.747559ZM98.0835 19.7744Q98.0835 19.7377 98.0957 19.6035Q98.1079 19.457 98.1079 19.4083Q98.1079 19.3717 98.0957 19.2374L98.0957 19.0423Q98.0835 18.9935 98.0713 18.8714Q98.0591 18.7494 98.0469 18.6885Q98.0347 18.6275 98.0103 18.5176Q97.9858 18.3955 97.9614 18.3347Q97.9492 18.2737 97.9126 18.1638Q97.876 18.0417 97.8516 17.9809Q97.8271 17.9199 97.7783 17.8222Q97.7417 17.7123 97.7051 17.6393Q97.6685 17.5782 97.6196 17.4806L97.522 17.3097Q97.4731 17.2488 97.4243 17.1634Q97.3633 17.0779 97.3022 17.0047Q97.2534 16.9437 97.1924 16.8706Q97.1802 16.8584 97.1558 16.8218L97.0459 16.7119Q96.9685 16.626 96.9699 16.6248L96.9811 16.6349Q94.6027 14.2701 92.0776 11.7463L92.3096 11.5146L92.5537 11.2705Q94.0186 9.80638 95.6421 8.18379Q96.1548 7.68349 96.6187 7.22001L96.9849 6.85399Q98.1079 5.73152 98.1079 4.13316Q98.1079 2.53499 96.9841 1.41251Q95.8605 0.277832 94.2724 0.277832Q92.6968 0.277832 91.5731 1.41251L88.2261 4.74332Q85.3313 7.61044 84.9283 7.95205Q83.4869 9.1964 81.2395 8.92804Q78.821 8.65968 78.6499 6.62206L78.6499 16.8706Q78.9675 15.6505 80.1889 15.0283Q81.3128 14.4548 82.6807 14.6013Q84.0855 14.8208 84.9283 15.5406Q85.5757 16.1386 91.5731 22.0802Q92.074 22.5805 92.7214 22.8732Q93.4786 23.2148 94.2726 23.2148Q95.2375 23.2148 96.0926 22.7512Q96.5935 22.4828 96.9843 22.0802Q97.1186 21.9461 97.2408 21.7996L97.2324 21.8111L97.3263 21.6897Q97.4361 21.5434 97.4728 21.4946Q97.4698 21.4961 97.4686 21.4952Q97.4604 21.4888 97.5462 21.3603Q97.6316 21.214 97.6561 21.1652L97.7293 21.0187Q97.8027 20.8724 97.8149 20.8358Q97.8149 20.8236 97.876 20.6771Q97.9248 20.5306 97.937 20.482Q97.9492 20.4576 97.9858 20.3233Q98.0225 20.1768 98.0225 20.1282Q98.0347 20.1038 98.0591 19.9573Q98.0835 19.8108 98.0835 19.7744ZM38.0615 23.2148Q37.0483 23.2148 35.8887 22.3726Q34.3872 21.2617 34.3872 19.4673Q34.3872 11.7646 34.3628 4.14746Q34.3628 2.56055 33.252 1.4375Q32.1533 0.314455 30.5786 0.290039Q28.9673 0.314453 27.832 1.46191Q26.6968 2.62158 26.6968 4.25732L26.6968 19.2598Q26.6968 20.8955 27.8564 22.0552Q29.0039 23.2148 30.6396 23.2148L38.0615 23.2148ZM54.6997 19.8579Q51.3672 16.501 51.3672 11.7524L51.3672 4.14746Q51.3672 2.54834 52.4902 1.41309Q53.6255 0.290039 55.2124 0.290039Q56.7993 0.290039 57.9468 1.38867Q59.082 2.49952 59.082 4.01318L59.082 17.5142Q59.082 20.1997 60.4492 21.811Q61.499 23.0439 62.7563 23.2148Q58.0444 23.2148 54.6997 19.8579ZM123.547 22.7754Q122.473 23.3125 121.277 23.1538Q120.117 22.9951 119.238 22.2383Q118.884 21.9331 118.506 21.396Q117.969 20.6392 117.688 20.2974Q114.502 16.562 110.156 15.4634Q108.13 14.9629 106.482 15.2925Q104.736 15.6343 103.723 16.855Q106.799 10.5562 107.166 9.83594Q108.215 7.80957 110.742 7.69971Q111.548 7.67529 112.683 7.83398Q114.124 8.05371 114.16 8.05371Q116.138 8.18799 117.395 6.88184Q118.665 5.57568 118.469 3.63477Q125.171 17.1235 125.427 17.7339Q126.025 19.1621 125.488 20.6147Q124.951 22.0796 123.547 22.7754ZM8.91113 15.4878L13.7085 15.4878Q15.2344 15.4878 16.3086 14.3892Q17.395 13.2905 17.395 11.7402Q17.395 10.1899 16.3086 9.10352Q15.2344 8.00488 13.7085 8.00488Q13.5864 8.00488 8.91113 8.01709Q7.61719 8.06592 6.18896 7.73633Q3.33252 7.06494 2.63672 5.13623Q2.25004 4.07856 2.24481 4.08045Q2.24443 4.08059 2.24609 4.08643L2.24609 19.4185Q2.36816 18.686 2.83203 17.917Q3.8208 16.3057 6.46973 15.7319Q7.78809 15.4512 8.91113 15.4878Z" />
  </g>
</svg>